<?xml version="1.0" encoding="UTF-8" standalone="no"?>
<svg
   xmlns:dc="http://purl.org/dc/elements/1.1/"
   xmlns:cc="http://creativecommons.org/ns#"
   xmlns:rdf="http://www.w3.org/1999/02/22-rdf-syntax-ns#"
   xmlns:svg="http://www.w3.org/2000/svg"
   xmlns="http://www.w3.org/2000/svg"
   xmlns:sodipodi="http://sodipodi.sourceforge.net/DTD/sodipodi-0.dtd"
   xmlns:inkscape="http://www.inkscape.org/namespaces/inkscape"
   width="216"
   height="220"
   version="1.1"
   x="0px"
   y="0px"
   viewBox="0 0 25.92 26.4"
   style="fill:#000000"
   xml:space="preserve"
   id="svg4647"
   sodipodi:docname="compass-rose.svg"
   inkscape:version="0.92.2 (unknown)"><metadata
     id="metadata4653"><rdf:RDF><cc:Work
         rdf:about=""><dc:format>image/svg+xml</dc:format><dc:type
           rdf:resource="http://purl.org/dc/dcmitype/StillImage" /><dc:title></dc:title></cc:Work></rdf:RDF></metadata><defs
     id="defs4651" /><sodipodi:namedview
     pagecolor="#ffffff"
     bordercolor="#666666"
     borderopacity="1"
     objecttolerance="10"
     gridtolerance="10"
     guidetolerance="10"
     inkscape:pageopacity="0"
     inkscape:pageshadow="2"
     inkscape:window-width="3759"
     inkscape:window-height="2130"
     id="namedview4649"
     showgrid="false"
     inkscape:zoom="6.675088"
     inkscape:cx="165.6426"
     inkscape:cy="117.82482"
     inkscape:window-x="81"
     inkscape:window-y="30"
     inkscape:window-maximized="1"
     inkscape:current-layer="svg4647" /><g
     id="g6426"
     transform="translate(-0.14631343,0.57734634)"><g
       transform="matrix(0.7826087,0,0,0.7826087,4.6486956,3.2086956)"
       id="g4645"><g
         id="g4607"><path
           inkscape:connector-curvature="0"
           id="path4605"
           d="M 12,21 C 7.037,21 3,16.962 3,12 3,7.038 7.037,3 12,3 c 4.963,0 9,4.038 9,9 0,4.962 -4.037,9 -9,9 z M 12,4 c -4.411,0 -8,3.589 -8,8 0,4.411 3.589,8 8,8 4.411,0 8,-3.589 8,-8 0,-4.411 -3.589,-8 -8,-8 z" /></g><g
         id="g4611"><path
           inkscape:connector-curvature="0"
           id="path4609"
           d="m 12,14.5 c -1.379,0 -2.5,-1.122 -2.5,-2.5 0,-1.378 1.121,-2.5 2.5,-2.5 1.379,0 2.5,1.122 2.5,2.5 0,1.378 -1.121,2.5 -2.5,2.5 z m 0,-4 c -0.827,0 -1.5,0.673 -1.5,1.5 0,0.827 0.673,1.5 1.5,1.5 0.827,0 1.5,-0.673 1.5,-1.5 0,-0.827 -0.673,-1.5 -1.5,-1.5 z" /></g><g
         id="g4615"><path
           inkscape:connector-curvature="0"
           id="path4613"
           d="m 12.999,10.5 c -0.251,0 -0.468,-0.189 -0.496,-0.445 L 12,5.528 11.497,10.055 c -0.031,0.275 -0.274,0.464 -0.553,0.442 -0.274,-0.031 -0.472,-0.278 -0.441,-0.552 l 1,-9 C 11.531,0.691 11.745,0.5 12,0.5 c 0.255,0 0.469,0.191 0.497,0.445 l 1,9 c 0.03,0.274 -0.167,0.521 -0.441,0.552 -0.02,0.002 -0.038,0.003 -0.057,0.003 z" /></g><g
         id="g4619"><path
           inkscape:connector-curvature="0"
           id="path4617"
           d="m 13.999,13.5 c -0.251,0 -0.468,-0.189 -0.496,-0.445 -0.03,-0.274 0.167,-0.521 0.441,-0.552 L 18.473,12 13.945,11.497 c -0.274,-0.031 -0.472,-0.278 -0.441,-0.552 0.03,-0.275 0.267,-0.475 0.553,-0.442 l 9,1 c 0.252,0.028 0.443,0.242 0.443,0.497 0,0.255 -0.191,0.469 -0.444,0.497 l -9,1 c -0.02,0.002 -0.038,0.003 -0.057,0.003 z" /></g><g
         id="g4623"><path
           inkscape:connector-curvature="0"
           id="path4621"
           d="m 12,23.5 c -0.255,0 -0.469,-0.191 -0.497,-0.445 l -1,-9 c -0.03,-0.274 0.167,-0.521 0.441,-0.552 0.279,-0.032 0.522,0.167 0.553,0.442 L 12,18.472 12.503,13.945 c 0.03,-0.275 0.267,-0.475 0.553,-0.442 0.274,0.031 0.472,0.278 0.441,0.552 l -1,9 C 12.469,23.309 12.255,23.5 12,23.5 Z" /></g><g
         id="g4627"><path
           inkscape:connector-curvature="0"
           id="path4625"
           d="m 10.001,13.5 c -0.019,0 -0.037,-10e-4 -0.057,-0.003 l -9,-1 C 0.691,12.469 0.5,12.255 0.5,12 c 0,-0.255 0.191,-0.469 0.444,-0.497 l 9,-1 c 0.279,-0.032 0.521,0.167 0.553,0.442 0.03,0.274 -0.167,0.521 -0.441,0.552 L 5.527,12 l 4.528,0.503 c 0.274,0.031 0.472,0.278 0.441,0.552 -0.027,0.256 -0.244,0.445 -0.495,0.445 z" /></g><g
         id="g4631"><path
           inkscape:connector-curvature="0"
           id="path4629"
           d="m 10.5,11 c -0.128,0 -0.256,-0.049 -0.354,-0.146 l -4.5,-4.5 c -0.195,-0.195 -0.195,-0.512 0,-0.707 0.195,-0.195 0.512,-0.195 0.707,0 l 4.5,4.5 c 0.195,0.195 0.195,0.512 0,0.707 C 10.756,10.951 10.628,11 10.5,11 Z" /></g><g
         id="g4635"><path
           inkscape:connector-curvature="0"
           id="path4633"
           d="m 13.5,11 c -0.128,0 -0.256,-0.049 -0.354,-0.146 -0.195,-0.195 -0.195,-0.512 0,-0.707 l 4.5,-4.5 c 0.195,-0.195 0.512,-0.195 0.707,0 0.195,0.195 0.195,0.512 0,0.707 l -4.5,4.5 C 13.756,10.951 13.628,11 13.5,11 Z" /></g><g
         id="g4639"><path
           inkscape:connector-curvature="0"
           id="path4637"
           d="m 18,18.5 c -0.128,0 -0.256,-0.049 -0.354,-0.146 l -4.5,-4.5 c -0.195,-0.195 -0.195,-0.512 0,-0.707 0.195,-0.195 0.512,-0.195 0.707,0 l 4.5,4.5 c 0.195,0.195 0.195,0.512 0,0.707 C 18.256,18.451 18.128,18.5 18,18.5 Z" /></g><g
         id="g4643"><path
           inkscape:connector-curvature="0"
           id="path4641"
           d="m 6,18.5 c -0.128,0 -0.256,-0.049 -0.354,-0.146 -0.195,-0.195 -0.195,-0.512 0,-0.707 l 4.5,-4.5 c 0.195,-0.195 0.512,-0.195 0.707,0 0.195,0.195 0.195,0.512 0,0.707 l -4.5,4.5 C 6.256,18.451 6.128,18.5 6,18.5 Z" /></g></g><g
       transform="matrix(1.5432016,0,0,1.5432016,-9.108024,-1.2956954)"
       id="text5200"
       style="font-style:normal;font-variant:normal;font-weight:normal;font-stretch:normal;font-size:3.20000005px;line-height:100%;font-family:sans-serif;-inkscape-font-specification:'sans-serif, Normal';font-variant-ligatures:normal;font-variant-caps:normal;font-variant-numeric:normal;font-feature-settings:normal;text-align:center;letter-spacing:0px;word-spacing:0px;writing-mode:lr-tb;text-anchor:middle;fill:#000000;fill-opacity:1;stroke:none;stroke-width:0.12px;stroke-linecap:butt;stroke-linejoin:miter;stroke-opacity:1"
       aria-label="N"><path
         inkscape:connector-curvature="0"
         id="path5799"
         style="font-style:normal;font-variant:normal;font-weight:normal;font-stretch:normal;font-size:3.20000005px;font-family:sans-serif;-inkscape-font-specification:'sans-serif, Normal';font-variant-ligatures:normal;font-variant-caps:normal;font-variant-numeric:normal;font-feature-settings:normal;text-align:center;writing-mode:lr-tb;text-anchor:middle;stroke-width:0.12px"
         d="m 14.117187,0.4943061 h 0.425 l 1.034376,1.9515625 V 0.4943061 h 0.30625 v 2.3328125 h -0.425 L 14.423437,0.87555611 V 2.8271186 h -0.30625 z" /></g><g
       transform="matrix(1.4874122,0,0,1.4874122,-8.2772888,-17.919285)"
       id="text5204"
       style="font-style:normal;font-variant:normal;font-weight:normal;font-stretch:normal;font-size:3.20000005px;line-height:100%;font-family:sans-serif;-inkscape-font-specification:'sans-serif, Normal';font-variant-ligatures:normal;font-variant-caps:normal;font-variant-numeric:normal;font-feature-settings:normal;text-align:center;letter-spacing:0px;word-spacing:0px;writing-mode:lr-tb;text-anchor:middle;fill:#000000;fill-opacity:1;stroke:none;stroke-width:0.12px;stroke-linecap:butt;stroke-linejoin:miter;stroke-opacity:1"
       aria-label="S"><path
         inkscape:connector-curvature="0"
         id="path5790"
         style="font-style:normal;font-variant:normal;font-weight:normal;font-stretch:normal;font-size:3.20000005px;font-family:sans-serif;-inkscape-font-specification:'sans-serif, Normal';font-variant-ligatures:normal;font-variant-caps:normal;font-variant-numeric:normal;font-feature-settings:normal;text-align:center;writing-mode:lr-tb;text-anchor:middle;stroke-width:0.12px"
         d="m 15.684571,27.07663 v 0.307812 q -0.179688,-0.08594 -0.339063,-0.128125 -0.159375,-0.04219 -0.307812,-0.04219 -0.257813,0 -0.398438,0.1 -0.139062,0.1 -0.139062,0.284375 0,0.154687 0.09219,0.234375 0.09375,0.07813 0.353125,0.126562 l 0.190625,0.03906 q 0.353125,0.06719 0.520313,0.2375 0.16875,0.16875 0.16875,0.453125 0,0.339063 -0.228125,0.514063 -0.226563,0.175 -0.665625,0.175 -0.165625,0 -0.353125,-0.0375 -0.185938,-0.0375 -0.385938,-0.110938 v -0.325 q 0.192188,0.107813 0.376563,0.1625 0.184375,0.05469 0.3625,0.05469 0.270312,0 0.417187,-0.10625 0.146875,-0.10625 0.146875,-0.303125 0,-0.171875 -0.10625,-0.26875 -0.104687,-0.09688 -0.345312,-0.145313 l -0.192188,-0.0375 q -0.353125,-0.07031 -0.510937,-0.220312 -0.157813,-0.150001 -0.157813,-0.417188 0,-0.309375 0.217188,-0.4875 0.21875,-0.178125 0.601562,-0.178125 0.164063,0 0.334375,0.02969 0.170313,0.02969 0.348438,0.08906 z" /></g><g
       transform="matrix(1.5432013,0,0,1.5432013,-18.431716,-10.54802)"
       id="text5208"
       style="font-style:normal;font-variant:normal;font-weight:normal;font-stretch:normal;font-size:3.20000005px;line-height:100%;font-family:sans-serif;-inkscape-font-specification:'sans-serif, Normal';font-variant-ligatures:normal;font-variant-caps:normal;font-variant-numeric:normal;font-feature-settings:normal;text-align:center;letter-spacing:0px;word-spacing:0px;writing-mode:lr-tb;text-anchor:middle;fill:#000000;fill-opacity:1;stroke:none;stroke-width:0.12px;stroke-linecap:butt;stroke-linejoin:miter;stroke-opacity:1"
       aria-label="E"><path
         inkscape:connector-curvature="0"
         id="path5793"
         style="font-style:normal;font-variant:normal;font-weight:normal;font-stretch:normal;font-size:3.20000005px;font-family:sans-serif;-inkscape-font-specification:'sans-serif, Normal';font-variant-ligatures:normal;font-variant-caps:normal;font-variant-numeric:normal;font-feature-settings:normal;text-align:center;writing-mode:lr-tb;text-anchor:middle;stroke-width:0.12px"
         d="m 27.304273,13.833594 h 1.475 v 0.265625 h -1.159375 v 0.690625 h 1.110937 v 0.265625 h -1.110937 v 0.845313 h 1.1875 v 0.265625 h -1.503125 z" /></g><g
       transform="matrix(1.5432013,0,0,1.5432013,-0.10251773,-10.54802)"
       id="text5212"
       style="font-style:normal;font-variant:normal;font-weight:normal;font-stretch:normal;font-size:3.20000005px;line-height:100%;font-family:sans-serif;-inkscape-font-specification:'sans-serif, Normal';font-variant-ligatures:normal;font-variant-caps:normal;font-variant-numeric:normal;font-feature-settings:normal;text-align:center;letter-spacing:0px;word-spacing:0px;writing-mode:lr-tb;text-anchor:middle;fill:#000000;fill-opacity:1;stroke:none;stroke-width:0.12px;stroke-linecap:butt;stroke-linejoin:miter;stroke-opacity:1"
       aria-label="W"><path
         inkscape:connector-curvature="0"
         id="path5796"
         style="font-style:normal;font-variant:normal;font-weight:normal;font-stretch:normal;font-size:3.20000005px;font-family:sans-serif;-inkscape-font-specification:'sans-serif, Normal';font-variant-ligatures:normal;font-variant-caps:normal;font-variant-numeric:normal;font-feature-settings:normal;text-align:center;writing-mode:lr-tb;text-anchor:middle;stroke-width:0.12px"
         d="m 0.18872881,13.833594 h 0.31875001 l 0.490625,1.971875 0.48906248,-1.971875 h 0.3546875 l 0.490625,1.971875 0.4890626,-1.971875 h 0.3203125 l -0.5859376,2.332813 h -0.396875 l -0.4921875,-2.025 -0.496875,2.025 H 0.77310382 Z" /></g></g></svg>