<svg xmlns="http://www.w3.org/2000/svg" viewBox="0 0 264.583 124.013">
  <g stroke-width=".715">
    <path class="st0" d="M87.86 58.913s-3.85 7.53-8.703 9.037c-5.522 1.673-16.735-7.196-24.098-3.85-7.196 3.18-5.523 22.091-5.523 22.091s.502-15.898 7.698-15.563c10.041.502 16.233 5.522 23.262 4.518 8.87-1.506 19.246-23.262 19.246-23.262m14.225 3.013l-2.51 49.536s-3.85-6.694-6.862-18.744.502-34.642.502-34.642zm5.857-2.845l13.22 5.187s3.682 5.021 5.021 10.376c2.678 10.209-11.38 32.3-11.38 32.3s8.87-22.259 6.527-30.626c-2.008-7.364-13.388-17.237-13.388-17.237" fill="#b22472"/>
    <path fill="#fff" d="M62.757 63.431c7.196 6.695 10.71 15.23 10.71 25.103 0 10.041-3.514 18.409-10.71 25.103-7.196 6.861-15.898 10.208-26.107 10.208-10.208 0-18.91-3.347-26.107-10.04C3.514 106.942 0 98.574 0 88.701c0-10.042 3.514-18.41 10.543-25.103 7.029-6.694 15.731-10.209 25.94-10.209 10.208 0 19.078 3.347 26.274 10.041zM23.262 74.98c-3.514 3.514-5.188 8.033-5.188 13.723 0 5.69 1.674 10.375 5.188 13.722 3.514 3.515 7.865 5.188 13.388 5.188 5.355 0 9.874-1.673 13.388-5.188 3.515-3.514 5.188-8.032 5.188-13.722 0-5.69-1.673-10.209-5.188-13.723-3.514-3.515-7.865-5.188-13.388-5.188-5.523-.168-9.874 1.673-13.388 5.188zm98.235 42.004H97.064l-2.51 5.69H75.476l30.96-69.284h5.69l30.96 69.284h-19.078zm-12.216-29.956l-6.025 15.731h11.882zm81.165 35.646l-15.396-21.086h-7.363v21.086h-17.572V54.562h26.776c7.698 0 13.89 2.175 18.91 6.36 5.021 4.183 7.364 9.873 7.364 17.07 0 8.534-3.514 15.06-10.71 19.412l17.906 25.27zm-22.592-36.65h9.037c2.51 0 4.518-.67 5.857-2.176 1.506-1.506 2.176-3.347 2.176-5.857 0-2.51-.67-4.351-2.176-5.857-1.506-1.506-3.514-2.176-5.857-2.176h-9.037zm94.554-18.911l-11.882 9.037c-1.674-2.51-3.347-4.35-5.02-5.522-1.674-1.172-3.85-1.674-6.193-1.674-4.016 0-6.024 1.506-6.024 4.351 0 1.172.502 2.176 1.338 3.013.837.836 2.343 1.673 4.519 2.51l7.865 3.347c5.858 2.51 10.376 5.355 13.221 8.535 2.845 3.18 4.351 7.196 4.351 12.05 0 6.526-2.343 11.714-7.028 15.563-4.686 3.849-10.711 5.69-17.907 5.69-6.192 0-11.547-1.339-16.233-4.184-4.686-2.678-8.368-6.527-10.878-11.213l12.05-9.037c4.35 5.858 9.37 8.703 15.228 8.703 4.686 0 7.029-1.674 7.029-5.02 0-1.507-.502-2.678-1.506-3.348-1.004-.837-2.845-1.673-5.523-2.845l-7.029-3.012c-11.547-5.02-17.237-11.882-17.237-20.584 0-6.025 2.176-10.878 6.694-14.56 4.519-3.682 10.209-5.523 17.238-5.523 10.543 0 18.408 4.519 22.927 13.723z"/>
    <path class="st0" d="M100.746 72.97s2.677 2.51-3.012-.502C92.21 69.456 77.986 80 77.986 80s5.02-8.033 8.702-9.873c4.853-2.51 14.058-3.682 14.058-3.682z" fill="#b22472"/>
    <path class="st1" d="M25.94 55.566s10.208-2.51 20.082-.837c8.702 1.339 17.237 8.2 26.107 8.702 6.526.335 18.241-5.355 24.768-8.702 0 0-1.172 11.045-.837 18.744.335 5.857 6.192 18.24 8.702 24.6.335.837-1.004 3.682-1.004 3.682.335 0 3.013-1.673 3.013-3.347-.503-7.363-4.686-17.907-4.854-26.274-.167-9.372 4.519-15.564 4.519-15.564h3.849s1.171.67 1.339 3.682c.167 3.347.167 5.188 1.004 9.874 2.008 10.543 12.384 12.216 14.894 17.739 3.85 8.535 4.017 8.87 4.017 8.87s1.004-5.858-2.51-14.058c-1.34-3.012-7.532-6.694-8.703-9.372-3.682-7.698-.837-21.086-.837-21.086s16.568 9.372 25.605 9.204c9.037-.167 18.409-5.355 25.27-6.36 5.188-.836 18.911 1.507 18.911 1.507s-16.233-8.2-23.262-6.192c-17.572 4.853-23.43 7.866-32.131-1.339-13.054-13.89.502-21.42-4.686-36.985-2.678-8.2-12.384-12.216-18.409-12.049-13.89.335-20.752 15.23-18.074 23.262 2.678 8.033 2.51 16.903 2.51 16.903S87.86 54.897 74.304 56.068c-6.024.67-22.425-7.698-29.119-7.53-6.025.166-19.245 7.028-19.245 7.028z" fill="#ec0b7c"/>
    <path class="st2" d="M100.411 16.07c1.674 0 3.012 1.842 3.012 4.017 0 2.176-1.338 4.017-3.012 4.017-1.673 0-3.012-1.841-3.012-4.017.167-2.175 1.506-4.016 3.012-4.016" fill="#fff"/>
    <path d="M100.411 19.25c1.339 0 2.343 1.005 2.343 2.343 0 1.34-1.004 2.343-2.343 2.343s-2.343-1.004-2.343-2.343c0-1.338 1.004-2.342 2.343-2.342"/>
    <path class="st2" d="M113.297 15.904c1.674 0 3.013 1.84 3.013 4.016s-1.34 4.016-3.013 4.016c-1.673 0-3.012-1.84-3.012-4.016s1.339-4.016 3.012-4.016" fill="#fff"/>
    <path d="M113.297 19.083c1.339 0 2.343 1.004 2.343 2.343s-1.004 2.343-2.343 2.343-2.343-1.004-2.343-2.343c-.167-1.339 1.004-2.343 2.343-2.343m1.172 7.698c.334 0 .502.168.502.502 0 .335-.168.503-.502.503-.335 0-.502-.168-.502-.503 0-.167.167-.502.502-.502m1.673-.167c.335 0 .502.167.502.502 0 .335-.167.502-.502.502-.334 0-.502-.167-.502-.502 0-.167.168-.502.502-.502m-.669 1.339c.335 0 .502.167.502.502 0 .335-.167.502-.502.502-.335 0-.502-.167-.502-.502 0-.335.167-.502.502-.502"/>
  </g>
</svg>
